PathFileType	4	(X/Y/Z)	./resultDataOpenSim/trcMotMarkerGrf/sub06/qtm-02-05.trc
DataRate	CameraRate	NumFrames	NumMarkers	Units	OrigDataRate	OrigDataStartFrame	OrigNumFrames
250.000000	250.000000	14	24	m	250.000000	1	484
Frame#	Time	L.Toe.Tip			R.Toe.Tip			L.Ankle.Lat			R.Ankle.Lat			L.Ankle.Med			R.Ankle.Med			L.Heel			R.Heel			L.Knee.Lat			R.Knee.Lat			L.Knee.Med			R.Knee.Med			L.Thigh.Upper			R.Thigh.Upper			L.ASIS			R.ASIS			V.Sacral			L.Acromium			R.Acromium			C7			L.Elbow			R.Elbow			L.Wrist.Lat			R.Wrist.Lat
		X1	Y1	Z1	X2	Y2	Z2	X3	Y3	Z3	X4	Y4	Z4	X5	Y5	Z5	X6	Y6	Z6	X7	Y7	Z7	X8	Y8	Z8	X9	Y9	Z9	X10	Y10	Z10	X11	Y11	Z11	X12	Y12	Z12	X13	Y13	Z13	X14	Y14	Z14	X15	Y15	Z15	X16	Y16	Z16	X17	Y17	Z17	X18	Y18	Z18	X19	Y19	Z19	X20	Y20	Z20	X21	Y21	Z21	X22	Y22	Z22	X23	Y23	Z23	X24	Y24	Z24

1	0	-1.5607134	0.03193921	-0.08698273	-0.95974762	0.11461778	0.11689711	-1.6800294	0.078500168	-0.10130076	-1.0874767	0.084988793	0.11796378	-1.6692347	0.092911199	-0.018274969	-1.0711538	0.11714492	0.035826368	NaN	NaN	NaN	-1.1188386	0.043156665	0.043588963	-1.5133936	0.41374185	-0.12399627	-1.2089099	0.45450207	0.12824792	-1.5265778	0.41784824	-0.0039540486	-1.2157204	0.4342756	-0.0031326254	-1.4136205	0.78848268	-0.18991163	-1.3966111	0.78017336	0.15778103	-1.3285568	0.82802342	-0.15021737	-1.3094731	0.83165192	0.096553846	-1.4967588	0.91326467	-0.0078608599	-1.3342704	1.3169729	-0.19602485	-1.3615341	1.2978545	0.16474506	-1.4200241	1.3508597	-0.019785964	-1.3396769	0.9976296	-0.27910295	-1.4884354	1.0049794	0.20130927	-1.1339846	0.8596115	-0.24151428	-1.3958696	0.78361228	0.23075795
2	0.004	-1.5606987	0.031900277	-0.086995112	-0.9468078	0.11924844	0.11611644	-1.6795618	0.079281169	-0.1014461	-1.0746161	0.086155406	0.1181107	-1.6699336	0.093292055	-0.017947172	-1.0590499	0.11847574	0.035813393	NaN	NaN	NaN	-1.1052943	0.043349721	0.043905574	-1.5100931	0.41306975	-0.12411497	-1.202469	0.45324443	0.12789204	-1.5226224	0.41699842	-0.0040487393	-1.2088916	0.43291275	-0.0038548101	-1.4086308	0.78714689	-0.1896878	-1.3896747	0.77858997	0.15780342	-1.3230508	0.82647333	-0.15058571	-1.3025775	0.83001036	0.096533219	-1.4904695	0.91185638	-0.0069773271	-1.3283486	1.3154705	-0.195755	-1.3556796	1.2961556	0.16522599	-1.4140265	1.3494872	-0.019385559	-1.3322135	0.99600634	-0.27882073	-1.4836158	1.0038377	0.2019734	-1.1258557	0.85925676	-0.24042423	-1.3907108	0.78177654	0.23106153
3	0.008	-1.5606857	0.031863726	-0.087005126	-0.93449408	0.12337775	0.115514	-1.6790784	0.080078183	-0.10159006	-1.0621416	0.087219453	0.11811213	-1.6715128	0.093505893	-0.017331412	-1.0472016	0.11973288	0.035726759	NaN	NaN	NaN	-1.0921172	0.0435655	0.044068095	-1.5067113	0.41238512	-0.12424774	-1.1959805	0.45203475	0.12754592	-1.5187052	0.41614318	-0.0041527798	-1.2020598	0.4316309	-0.0045558238	-1.403599	0.78581061	-0.18941153	-1.3825847	0.77699886	0.15790847	-1.3174789	0.8249235	-0.15089672	-1.2956819	0.82839453	0.096498459	-1.4841706	0.91046125	-0.0060877822	-1.3224083	1.3139583	-0.19544087	-1.3498514	1.2944902	0.16571324	-1.4080256	1.348107	-0.019007777	-1.3247707	0.99439999	-0.27852739	-1.4788122	1.0028181	0.20268427	-1.1178007	0.8588952	-0.23935724	-1.3855293	0.77994955	0.23138565
4	0.012	-1.560673	0.031831663	-0.087010417	-0.92303767	0.12677754	0.1150621	-1.6785334	0.080927266	-0.10175335	-1.0502632	0.088115839	0.11792145	-1.6733607	0.09373129	-0.016636726	-1.0357985	0.12086032	0.035521328	NaN	NaN	NaN	-1.0795509	0.043793098	0.043997311	-1.5031949	0.41169264	-0.12439487	-1.189405	0.45090218	0.1272096	-1.5147271	0.41526724	-0.0042796718	-1.1952158	0.43046961	-0.0051960788	-1.3984952	0.78447504	-0.1890791	-1.3753175	0.77542342	0.15810901	-1.3117695	0.82339378	-0.15110199	-1.2887664	0.82681263	0.096444092	-1.4778696	0.90910146	-0.0052072031	-1.3164315	1.3124421	-0.19507689	-1.3440434	1.2928685	0.16621607	-1.4019944	1.34673	-0.018617702	-1.3173551	0.9928149	-0.27820731	-1.4737286	1.0017327	0.20328587	-1.1098359	0.85852257	-0.23831187	-1.3803035	0.77813641	0.2317377
5	0.016	-1.5606581	0.031804206	-0.087008903	-0.91235099	0.12942907	0.11463016	-1.6778553	0.081858741	-0.10197328	-1.0390333	0.088811955	0.11757325	-1.674072	0.094313105	-0.016341477	-1.0249688	0.12181479	0.035184437	NaN	NaN	NaN	-1.0677349	0.04399673	0.043690209	-1.4995357	0.41101186	-0.12454868	-1.182714	0.44985936	0.12688297	-1.5105563	0.41436858	-0.0044331243	-1.1883611	0.42943234	-0.005738603	-1.3933138	0.78314609	-0.18872794	-1.3678943	0.77390755	0.15837541	-1.3059108	0.82191587	-0.15120151	-1.2818288	0.82526482	0.096365894	-1.4716141	0.9078036	-0.0043755547	-1.3104193	1.310942	-0.19468297	-1.3382345	1.2912845	0.16673838	-1.3959133	1.3453779	-0.018164209	-1.3099771	0.99124986	-0.27784308	-1.4680567	1.0002878	0.20358031	-1.1019534	0.85813483	-0.2372787	-1.3750338	0.77634271	0.23211213
6	0.02	-1.5606391	0.031778277	-0.087000289	-0.90227385	0.13136403	0.11414437	-1.677006	0.082867422	-0.10226092	-1.0284303	0.089283172	0.11709469	-1.673233	0.095337135	-0.016599957	-1.0147608	0.12255556	0.034712214	NaN	NaN	NaN	-1.0567431	0.044131171	0.043179343	-1.4957403	0.41036133	-0.12470381	-1.1758741	0.44890734	0.12656829	-1.5061405	0.41347479	-0.0046024717	-1.1814884	0.42851558	-0.0061818109	-1.3880492	0.78183386	-0.18838498	-1.3603509	0.77247478	0.15866294	-1.2999574	0.82050361	-0.15125356	-1.2748732	0.82374691	0.096256952	-1.4654532	0.90658035	-0.0036197228	-1.3043769	1.3094742	-0.19426666	-1.3323957	1.2897298	0.16727694	-1.3897847	1.3440584	-0.01765567	-1.3026382	0.98970717	-0.27741677	-1.4618634	0.99848285	0.20360368	-1.0941401	0.85772397	-0.23625682	-1.3697267	0.77457642	0.23250225
7	0.024	-1.5606113	0.031750145	-0.086989503	-0.89271359	0.13262036	0.11357494	-1.6761093	0.083928311	-0.10255352	-1.0184435	0.089503954	0.11647411	-1.6715318	0.096618458	-0.017183831	-1.0051712	0.12303604	0.034099158	NaN	NaN	NaN	-1.0466015	0.044135869	0.042511226	-1.4918006	0.40974836	-0.12486401	-1.1688536	0.44803773	0.12626642	-1.5015362	0.41261427	-0.0047762555	-1.1745773	0.42772389	-0.0065495372	-1.3826922	0.78055121	-0.18804625	-1.3528349	0.77110875	0.1589158	-1.2939885	0.81914937	-0.15133877	-1.2678869	0.82225223	0.09611457	-1.4593968	0.90542193	-0.0029213458	-1.2983081	1.3080467	-0.19381821	-1.3264966	1.2882032	0.16782873	-1.3836269	1.3427675	-0.017147191	-1.2953377	0.98819782	-0.27692061	-1.4554912	0.99660169	0.20358911	-1.0863896	0.85727967	-0.23525063	-1.3643704	0.77285146	0.23290702
8	0.028	-1.5605604	0.031719082	-0.086988673	-0.88365033	0.13323149	0.11288288	-1.6754107	0.085036857	-0.10275735	-1.0090897	0.08945635	0.11570561	-1.6696684	0.097981614	-0.017834834	-0.99618996	0.12320874	0.033348174	NaN	NaN	NaN	-1.037249	0.043945603	0.041719485	-1.4876882	0.40916672	-0.12504327	-1.161623	0.44723754	0.12598026	-1.4967716	0.4117949	-0.0049677278	-1.1676045	0.42706226	-0.0068559348	-1.3772391	0.77930905	-0.18770359	-1.3455278	0.76977666	0.15910236	-1.2880697	0.81784017	-0.15152334	-1.260839	0.82078259	0.095942072	-1.4534157	0.90430647	-0.0022236181	-1.2922115	1.3066647	-0.19333104	-1.3205127	1.2867129	0.16839551	-1.3774479	1.3415081	-0.01666579	-1.2880825	0.98673543	-0.27636507	-1.4491787	0.9948752	0.20370514	-1.0787057	0.85679654	-0.23426377	-1.3589321	0.77118317	0.23332961
9	0.032	-1.5604632	0.031688761	-0.087013661	-0.87510157	0.13321921	0.11201776	-1.6749116	0.086215738	-0.10288111	-1.0003863	0.089131953	0.11481595	-1.6679481	0.099357052	-0.01842925	-0.98781857	0.12304248	0.032470959	NaN	NaN	NaN	-1.0285541	0.043525941	0.040803048	-1.483372	0.40860255	-0.12525152	-1.1541934	0.4464885	0.12570874	-1.4917486	0.41101855	-0.0052108421	-1.1605504	0.42653055	-0.0070979849	-1.3716929	0.77811422	-0.18736052	-1.3384649	0.7684789	0.15923652	-1.2822175	0.81657088	-0.15182744	-1.253697	0.81935171	0.095743102	-1.4474672	0.90322015	-0.0014510556	-1.2860786	1.3053339	-0.19281025	-1.3144377	1.2852743	0.16897822	-1.3712421	1.3402869	-0.016198837	-1.2808835	0.98532611	-0.27576164	-1.4429237	0.99332748	0.20394893	-1.0710998	0.85628441	-0.23329929	-1.353387	0.76958292	0.23377382
10	0.036	-1.5603117	0.031666748	-0.087070106	-0.86709908	0.13262693	0.11091074	-1.674249	0.087488085	-0.10305812	-0.99233739	0.088523301	0.11383203	-1.6664114	0.10073744	-0.018954772	-0.98006925	0.12252422	0.031474526	NaN	NaN	NaN	-1.0204832	0.042878638	0.039782899	-1.4788468	0.40804584	-0.12548796	-1.1466445	0.4457664	0.12543051	-1.4864854	0.4102795	-0.0055006367	-1.1534002	0.42612945	-0.0072767955	-1.3660549	0.77696796	-0.18701831	-1.3313635	0.76730471	0.15937582	-1.276364	0.81534958	-0.15219151	-1.2464463	0.81797711	0.095519439	-1.4414983	0.90216135	-0.00057149725	-1.2798988	1.3040603	-0.19226669	-1.3082807	1.2839026	0.16957267	-1.3649987	1.3391061	-0.015722671	-1.2737461	0.98396888	-0.27510549	-1.4366313	0.99188692	0.2042474	-1.0635826	0.85576545	-0.23235752	-1.3477301	0.76805663	0.23424118
11	0.04	-1.5601561	0.031660848	-0.087131573	-0.85967482	0.13153207	0.10948277	-1.6731623	0.088860144	-0.10339174	-0.98493694	0.08762509	0.11276337	-1.6649346	0.10215237	-0.019464556	-0.97296236	0.12164571	0.030358076	NaN	NaN	NaN	-1.0131909	0.042005111	0.038752372	-1.4741332	0.40749531	-0.12575173	-1.1390566	0.44505802	0.12510604	-1.4812056	0.40955603	-0.0057812697	-1.1461474	0.42586176	-0.0074124951	-1.3603242	0.77586551	-0.18666763	-1.3235701	0.76644114	0.15962839	-1.27038	0.81418551	-0.15249342	-1.2390943	0.81667238	0.095273898	-1.4354045	0.90111685	0.00028397383	-1.2736693	1.3028489	-0.19171134	-1.3020553	1.2826064	0.17017521	-1.3587025	1.3379692	-0.015199572	-1.2666721	0.98266553	-0.27439348	-1.4302636	0.99051124	0.20456116	-1.0561591	0.85525411	-0.23143409	-1.3419636	0.76660632	0.2347296
12	0.044	-1.5600894	0.03167361	-0.08714829	-0.85284697	0.13000175	0.10770137	-1.671771	0.090328972	-0.10386718	-0.97817137	0.086441889	0.1116228	-1.6633316	0.10363926	-0.020029753	-0.96651348	0.12040243	0.029124379	NaN	NaN	NaN	-1.006834	0.04088608	0.037797538	-1.469234	0.40694746	-0.1260428	-1.131434	0.44437481	0.1247063	-1.4760151	0.40882592	-0.0060187966	-1.1387974	0.42572225	-0.0075338657	-1.3545013	0.77480069	-0.18629676	-1.3144479	0.76604812	0.16010991	-1.2641708	0.81307346	-0.15264316	-1.2316567	0.8154459	0.095010071	-1.428984	0.90003747	0.00078428115	-1.2673959	1.3017033	-0.19114646	-1.2957674	1.2813903	0.17078796	-1.3523439	1.3368824	-0.014597374	-1.259665	0.98142322	-0.27364064	-1.4238539	0.98921106	0.20489818	-1.0488274	0.85474478	-0.23052438	-1.3360957	0.76523318	0.23523385
13	0.048	-1.5601249	0.03170126	-0.08711247	-0.84661811	0.12806502	0.10560726	-1.6702941	0.091891377	-0.10442699	-0.97202525	0.084986378	0.11042823	-1.6615269	0.10520816	-0.020686109	-0.9607198	0.11880349	0.027785444	NaN	NaN	NaN	-1.0013961	0.039499627	0.036916226	-1.4641191	0.40638751	-0.12635453	-1.123709	0.44374537	0.12423817	-1.4707903	0.40807669	-0.0062338229	-1.1313723	0.4256885	-0.0076525454	-1.3485868	0.7737722	-0.18589955	-1.304042	0.76607536	0.16082579	-1.2577538	0.81200081	-0.15265179	-1.2241493	0.81430558	0.094734165	-1.4220244	0.89886899	0.00062472052	-1.2610828	1.3006213	-0.19055935	-1.2894111	1.2802591	0.17141643	-1.3459308	1.3358447	-0.013924604	-1.2527262	0.98024935	-0.27285671	-1.4174384	0.98801107	0.20527305	-1.0415827	0.85422166	-0.22963015	-1.3301434	0.76393967	0.23574733
14	0.052	-1.5601391	0.031737978	-0.087089665	-0.84098326	0.12573337	0.10327023	-1.6688021	0.093544429	-0.10504665	-0.96648846	0.083274088	0.10918417	-1.6597673	0.106836	-0.021380691	-0.95556363	0.11687515	0.026356208	NaN	NaN	NaN	-0.99675239	0.037841559	0.036057027	-1.458761	0.40579951	-0.12667293	-1.1158096	0.44319561	0.12372909	-1.4654058	0.40729701	-0.0064591279	-1.1239094	0.42572362	-0.0077603167	-1.3425786	0.77278596	-0.18547761	-1.2932876	0.76623223	0.16160746	-1.251242	0.81096434	-0.15260144	-1.2165786	0.81326043	0.094463357	-1.4145748	0.89763654	-7.8455415e-05	-1.2547276	1.2995969	-0.18993288	-1.282981	1.2792143	0.1720648	-1.339474	1.3348491	-0.013206321	-1.2458551	0.97914958	-0.27203374	-1.4110121	0.98691872	0.20567353	-1.0344228	0.85367581	-0.22876122	-1.3241184	0.76272943	0.23626515
